<?xml version="1.0" encoding="UTF-8" standalone="no"?>
<!-- Created with Inkscape (http://www.inkscape.org/) -->

<svg
   width="400mm"
   height="400mm"
   viewBox="0 0 400 400"
   version="1.1"
   id="svg1"
   xmlns:xlink="http://www.w3.org/1999/xlink"
   xmlns="http://www.w3.org/2000/svg"
   xmlns:svg="http://www.w3.org/2000/svg">
  <defs
     id="defs1">
    <color-profile
       name="ACEScg-elle-V4-g10.icc"
       xlink:href="file:///usr/share/color/icc/krita/ACEScg-elle-V4-g10.icc"
       id="color-profile1" />
  </defs>
  <g
     id="layer1">
    <g
       id="group-R5"
       transform="matrix(0.03439428,0,0,0.0226077,98.3197,211.38504)"
       style="fill:#000000;fill-opacity:1;stroke:#000000;stroke-width:1.00412;stroke-dasharray:none;stroke-opacity:0.991877">
      <path
         id="path3"
         d="m 27636.9,22207.7 c 0,-114.7 -30.8,-497.7 497.6,-497.7 528.5,0 511.7,511.7 511.7,511.7 v 1442.6 h -995.4 c 0,0 -13.9,-1342 -13.9,-1456.6 z M 8169.04,24620.5 H 24860.5 c 0,0 0,0 838.8,0 838.8,0 1073.6,-905.8 1073.6,-905.8 v 1370 c 0,132.8 -107.6,240.4 -240.4,240.4 H 7710.51 c -145.15,0 -262.82,-117.7 -262.82,-262.8 v -1179.9 c 0,631.9 721.35,738.1 721.35,738.1 z M 30178.3,21080.9 c 402.6,402.6 2147.3,436.2 4932,1073.7 2784.7,637.4 3556.4,1207.8 3556.4,1207.8 0,0 -1979.5,-251.6 -3254.5,-251.6 h -5798.6 c -197.7,0 -357.9,-160.3 -357.9,-357.9 v -3567.6 c 285.2,939.4 520,1493 922.6,1895.6 z m 201.3,-10778.2 c 0,0 -872.3,1367.2 -964.6,1568.5 -92.2,201.4 -2692.4,796.9 -2784.7,864 0,0 1199.5,-1853.7 3749.3,-2432.5 z m -10859.2,1775.4 c -939.4,-950.6 -1565.7,-1632.8 -2393.3,-2068.9 -827.6,-436.2 -3813.6,-469.7 -3813.6,-469.7 0,0 939.4,-134.2 1778.2,-156.6 838.7,-22.4 1453.8,-156.6 1453.8,-637.5 0,-480.9 61.5,-1680.3 61.5,-1680.3 0,0 171.2,1913.5 1459.5,3053.1 1526.6,1350.4 2549.9,1711.1 3472.5,1711.1 v 0 c 922.7,0 1946,-360.7 3472.5,-1711.1 1288.3,-1139.6 1459.5,-3053.1 1459.5,-3053.1 0,0 61.5,1199.4 61.5,1680.3 0,480.9 615.1,615.1 1453.8,637.5 838.8,22.4 1778.2,156.6 1778.2,156.6 0,0 -2986,33.5 -3813.6,469.7 -827.6,436.1 -1453.8,1118.3 -2393.3,2068.9 -939.4,950.6 -2018.6,866.8 -2018.6,866.8 0,0 -1079.2,83.8 -2018.6,-866.8 z m 20242.7,11328.6 c -548.9,-715.3 -1566.1,-1990.3 -3561.7,-3415.5 -1979.1,-1413.8 -3216,-1970.8 -7091.6,-2453.6 -57.7,-7.2 -111.2,-40.5 -138.2,-92 -63.9,-121.9 -240.9,-345.9 -688.2,-382.7 -621.4,-49.7 -2316.4,59 -2719,-2238.5 -402.6,-2298.9 2097.6,-3959 3322.9,-4513.3 1223.9,-554.2 1838.6,-503.2 1838.6,-1040 V 6558.8 c 0,-126.7 -102.8,-229.5 -229.5,-229.5 h -4242.2 c -1183.6,1185 -2819.6,1919.1 -4627.3,1919.1 -1807.7,0 -3442.3,-734.1 -4626,-1919.1 h -4542.7 c -126.8,0 -229.5,102.8 -229.5,229.5 v 2782.6 c 0,201.5 76.3,394.8 214.1,541.9 341.4,364.3 1035.9,1123.5 1676,1933.8 36.5,46.2 85,80.7 140.7,99.5 352.2,118.9 1688.9,570.3 1878.5,642.4 0,0 -151.6,-887 -2162,-2331.1 115.4,45.7 3788.5,1524.6 3788.5,4254.3 0,2773.9 -446.8,3847.6 -3019.5,5592.2 -2572.7,1744.6 -6224.35,1811.7 -7045.68,1945.9 -821.32,134.3 -1107.17,1252.2 -1107.17,1912.4 v 1755.9 c 0,327.3 265.37,592.7 592.73,592.7 H 26966.2 c 356.9,0 646.2,-289.3 646.2,-646.2 v -1048.8 h 1391.7 c 259.4,0 469.7,-210.3 469.7,-469.7 v 0 c 0,0 8069.6,0 9009,0 939.4,0 1827.9,6.7 1280.3,-709.9"
         style="fill:#000000;fill-opacity:1;fill-rule:nonzero;stroke:#000000;stroke-width:7.53092;stroke-dasharray:none;stroke-opacity:0.991877"
         transform="matrix(0.13333333,0,0,-0.13333333,0,4348.08)" />
    </g>
    <path
       style="fill:#000000;fill-opacity:1;stroke:none;stroke-width:0.827114"
       d="m 162.54115,95.797022 -0.97319,6.272688 26.27213,4.60814 0.97318,-6.2727 -26.27212,-4.608128 m -2.25448,1.05659 -3.21112,3.302808 0.23297,0.94838 2.60391,0.36597 0.37424,-4.617158 m -15.04785,59.507578 c 6.18315,0.74831 5.88691,-7.72241 6.73324,-12.21283 2.58511,-13.7158 5.29596,-27.41097 7.81562,-41.13853 -6.20923,-0.75147 -5.84003,7.71329 -6.69211,12.20274 -2.60363,13.71801 -5.33609,27.41565 -7.85675,41.14862 m 16.08792,-53.22662 c -4.59267,17.30473 -8.49216,36.50165 -10.28942,54.31628 l 26.38861,5.08234 10.2894,-54.31628 -26.38859,-5.08234 m 29.01731,-0.59142 -0.84842,4.73364 3.07809,0.2495 -2.22967,-4.98314 m -43.14233,37.24616 3.87618,-21.06429 c -6.40504,1.82641 -8.88196,16.9386 -3.87618,21.06429 m 41.69496,-30.85698 -9.9317,53.7256 4.14297,0.49072 c 3.21566,-17.51976 9.41567,-36.39167 9.81522,-54.1998 l -4.02649,-0.0165 m -0.257,33.75098 c 5.07357,0.42648 8.19963,-4.63696 10.45699,-8.60233 -8.17504,-2.06224 -9.8467,0.55043 -10.45699,8.60233 m 5.09135,0.25776 0.23296,0.94838 c 7.05335,1.11135 11.16938,-1.79857 14.0093,-8.46931 -7.47467,-0.88061 -9.40262,2.30147 -14.24226,7.52093 m 8.99309,1.81334 0.23296,0.94839 c 7.06882,0.83801 11.07187,-1.71878 14.0093,-8.46932 -7.41846,-1.2539 -9.60096,2.2741 -14.24226,7.52093 m 8.9931,1.81336 0.11651,0.47418 c 7.37395,1.84021 9.8367,-1.6998 14.35873,-7.04674 l -0.23295,-0.94838 c -7.41323,-1.58571 -9.74241,2.18706 -14.24225,7.52094 m -66.01247,11.69019 2.22967,4.98313 0.47418,-0.11651 0.37426,-4.61716 -3.07811,-0.2495 m 75.12203,-9.40265 c 7.64997,1.64762 10.04091,-2.10873 14.71645,-7.63741 -7.32141,-2.63664 -11.05816,1.53638 -14.71645,7.63741 m -70.38839,10.2511 -0.97319,6.27268 26.74632,4.49166 0.49899,-6.15621 -26.27212,-4.60813 m 79.38148,-8.43774 c 7.75417,1.33475 9.83763,-2.12185 14.71645,-7.63741 -7.33637,-2.81931 -11.12101,1.43881 -14.71645,7.63741 m 8.76013,0.86495 0.23296,0.94839 c 7.6117,0.90273 10.24143,-2.06649 14.59997,-8.11159 -7.68548,-1.92152 -9.84322,1.99894 -14.83293,7.1632 m 9.10957,2.28755 c 7.23902,1.87463 11.62289,-1.26992 14.59997,-8.11159 -7.56867,-0.89764 -10.38209,1.9476 -14.59997,8.11159 m -69.32353,10.49231 -0.84843,4.73366 4.1595,-3.53578 -0.23296,-0.94837 -3.07811,-0.24951 m 78.9073,-8.32126 c 7.75261,0.9203 9.77302,-2.04902 14.71645,-7.63739 -6.96296,-3.1019 -11.88516,1.13643 -14.71645,7.63739 m 8.87661,1.33916 c 7.77267,1.83334 10.7842,-1.64479 15.19064,-7.75388 -7.86068,-1.70167 -10.71083,1.5406 -15.19064,7.75388 m 9.58376,2.17105 8.87661,1.33917 c 2.19228,-12.12103 -3.94016,-11.49605 -8.87661,-1.33917 m 11.87957,-8.95175 -1.82162,11.00634 c 12.54519,5.84526 16.15906,-11.77507 1.82162,-11.00634 z"
       id="path1" />
    <text
       xml:space="preserve"
       style="font-style:normal;font-variant:normal;font-weight:normal;font-stretch:normal;font-size:67.3545px;font-family:'FONTSPRING DEMO - Integral CF Medium';-inkscape-font-specification:'FONTSPRING DEMO - Integral CF Medium, Normal';font-variant-ligatures:normal;font-variant-caps:normal;font-variant-numeric:normal;font-variant-east-asian:normal;fill:#000000;fill-opacity:1;stroke:#000000;stroke-width:0.0934997;stroke-dasharray:none;stroke-opacity:0.991877;paint-order:fill markers stroke"
       x="76.320274"
       y="223.57408"
       id="text1"><tspan
         id="tspan1"
         style="font-style:normal;font-variant:normal;font-weight:normal;font-stretch:normal;font-size:67.3545px;font-family:'FONTSPRING DEMO - Integral CF Medium';-inkscape-font-specification:'FONTSPRING DEMO - Integral CF Medium, Normal';font-variant-ligatures:normal;font-variant-caps:normal;font-variant-numeric:normal;font-variant-east-asian:normal;stroke-width:0.0934997"
         x="76.320274"
         y="223.57408">FORGE</tspan></text>
    <path
       id="rect1"
       style="fill:#000000;fill-opacity:0;stroke:#000000;stroke-width:11.8139;stroke-dasharray:none;stroke-opacity:0.991877;paint-order:fill markers stroke"
       d="M 310.11498,124.77589 H 188.88805 c -10.68978,0 -19.29566,-8.60588 -19.29566,-19.29566 V -83.684862 c 0,-10.689785 8.60588,-19.295658 19.29566,-19.295658 v 0 h 189.16509 c 10.68979,0 19.29566,8.605873 19.29566,19.295658 V 105.48023 c 0,10.68978 -8.60587,19.29566 -19.29566,19.29566 h -35.88432"
       transform="matrix(0.73374862,0.67942105,-0.73374862,0.67942105,0,0)" />
  </g>
</svg>
